<svg width="777" height="598" viewBox="0 0 777 598" fill="none" xmlns="http://www.w3.org/2000/svg">
<g clip-path="url(#clip0_0_1)">
<path d="M673.724 353.613C673.724 348.253 671.924 343.903 669.714 343.893H67.224C65.004 343.903 63.214 348.253 63.204 353.613V574.256C63.2048 574.754 63.0198 575.234 62.6852 575.603C62.3507 575.972 61.8906 576.202 61.395 576.25C59.7783 576.405 58.1613 576.55 56.544 576.683C56.504 576.683 56.464 576.693 56.424 576.693C55.544 576.773 54.664 576.833 53.784 576.903H53.774C53.3213 576.066 52.874 575.222 52.432 574.37C52.2824 574.083 52.2042 573.764 52.204 573.441V341.003C52.204 339.523 52.264 338.033 52.364 336.563C52.5067 334.544 52.7571 332.535 53.114 330.543C54.804 321.253 58.624 314.963 62.964 314.943H673.964C674.597 314.947 675.223 315.08 675.804 315.333C676.657 315.71 677.428 316.25 678.074 316.923C678.951 317.835 679.701 318.861 680.304 319.973C682.444 323.743 683.974 329.363 684.514 335.903C684.514 335.963 684.524 336.023 684.524 336.083C684.664 337.703 684.734 339.353 684.724 341.003L684.864 362.433L684.954 375.213L685.224 415.313L685.324 429.553L685.764 575.753C685.764 576.283 685.553 576.792 685.178 577.167C684.803 577.542 684.294 577.753 683.764 577.753H675.724C675.194 577.753 674.685 577.542 674.31 577.167C673.935 576.792 673.724 576.283 673.724 575.753V353.613Z" fill="#E6E6E6"/>
<path d="M510.008 214.667H445.089C444.171 214.668 443.29 215.034 442.642 215.684C441.993 216.335 441.629 217.216 441.63 218.134V320.688H513.476V218.133C513.476 217.678 513.386 217.227 513.212 216.806C513.038 216.385 512.782 216.003 512.46 215.681C512.138 215.359 511.756 215.103 511.335 214.929C510.914 214.755 510.463 214.667 510.008 214.667ZM477.766 272.933C475.736 272.924 473.791 272.114 472.355 270.678C470.919 269.242 470.109 267.297 470.1 265.267V253.443C470.1 251.41 470.908 249.46 472.345 248.022C473.783 246.585 475.733 245.777 477.766 245.777C479.799 245.777 481.749 246.585 483.187 248.022C484.624 249.46 485.432 251.41 485.432 253.443V265.272C485.422 267.302 484.611 269.245 483.175 270.68C481.739 272.114 479.795 272.924 477.766 272.933Z" fill="#2F2E41"/>
<path d="M441.407 317.408V327.302C441.408 327.815 441.612 328.306 441.975 328.668C442.337 329.031 442.828 329.235 443.341 329.236H511.766C512.278 329.233 512.769 329.029 513.131 328.667C513.493 328.305 513.697 327.814 513.7 327.302V317.408H441.407Z" fill="#3F3D56"/>
<path d="M617.509 54.621H340.009C337.625 54.6247 335.339 55.5735 333.653 57.2594C331.967 58.9453 331.019 61.2308 331.015 63.615V250.877C331.017 253.262 331.965 255.549 333.651 257.235C335.337 258.921 337.624 259.869 340.009 259.871H617.509C619.894 259.869 622.181 258.921 623.867 257.235C625.553 255.549 626.501 253.262 626.503 250.877V63.615C626.499 61.2308 625.551 58.9453 623.865 57.2594C622.179 55.5735 619.893 54.6247 617.509 54.621Z" fill="#3F3D56"/>
<path d="M615.192 61.117H342.322C341.045 61.1199 339.822 61.629 338.92 62.5326C338.019 63.4361 337.512 64.6605 337.512 65.937V248.557C337.514 249.832 338.022 251.054 338.923 251.956C339.825 252.857 341.047 253.365 342.322 253.367H615.192C616.467 253.365 617.689 252.857 618.591 251.956C619.492 251.054 620 249.832 620.002 248.557V65.933C620.002 64.6564 619.496 63.4319 618.594 62.5283C617.692 61.6246 616.469 61.1157 615.192 61.113V61.117Z" fill="white"/>
<path d="M562.042 332.68H399.699C399.255 332.68 398.816 332.581 398.415 332.39C398.014 332.199 397.661 331.921 397.381 331.576C397.101 331.231 396.901 330.828 396.797 330.396C396.692 329.964 396.686 329.515 396.777 329.08L399.296 317.116C399.439 316.447 399.808 315.847 400.339 315.415C400.871 314.984 401.533 314.748 402.218 314.745H559.523C560.207 314.748 560.87 314.984 561.402 315.415C561.933 315.847 562.301 316.447 562.445 317.116L564.964 329.08C565.055 329.515 565.049 329.964 564.944 330.396C564.84 330.828 564.64 331.231 564.36 331.576C564.08 331.921 563.727 332.199 563.326 332.39C562.925 332.581 562.486 332.68 562.042 332.68Z" fill="#2F2E41"/>
<path d="M407.883 316.898H403.859C403.589 316.898 403.371 317.116 403.371 317.386V319.41C403.371 319.679 403.589 319.898 403.859 319.898H407.883C408.152 319.898 408.371 319.679 408.371 319.41V317.386C408.371 317.116 408.152 316.898 407.883 316.898Z" fill="#3F3D56"/>
<path d="M417.883 316.898H413.859C413.589 316.898 413.371 317.116 413.371 317.386V319.41C413.371 319.679 413.589 319.898 413.859 319.898H417.883C418.152 319.898 418.371 319.679 418.371 319.41V317.386C418.371 317.116 418.152 316.898 417.883 316.898Z" fill="#3F3D56"/>
<path d="M427.883 316.898H423.859C423.589 316.898 423.371 317.116 423.371 317.386V319.41C423.371 319.679 423.589 319.898 423.859 319.898H427.883C428.152 319.898 428.371 319.679 428.371 319.41V317.386C428.371 317.116 428.152 316.898 427.883 316.898Z" fill="#3F3D56"/>
<path d="M437.883 316.898H433.859C433.589 316.898 433.371 317.116 433.371 317.386V319.41C433.371 319.679 433.589 319.898 433.859 319.898H437.883C438.152 319.898 438.371 319.679 438.371 319.41V317.386C438.371 317.116 438.152 316.898 437.883 316.898Z" fill="#3F3D56"/>
<path d="M447.883 316.898H443.859C443.59 316.898 443.371 317.116 443.371 317.386V319.41C443.371 319.679 443.59 319.898 443.859 319.898H447.883C448.153 319.898 448.371 319.679 448.371 319.41V317.386C448.371 317.116 448.153 316.898 447.883 316.898Z" fill="#3F3D56"/>
<path d="M457.883 316.898H453.859C453.59 316.898 453.371 317.116 453.371 317.386V319.41C453.371 319.679 453.59 319.898 453.859 319.898H457.883C458.153 319.898 458.371 319.679 458.371 319.41V317.386C458.371 317.116 458.153 316.898 457.883 316.898Z" fill="#3F3D56"/>
<path d="M467.883 316.898H463.859C463.59 316.898 463.371 317.116 463.371 317.386V319.41C463.371 319.679 463.59 319.898 463.859 319.898H467.883C468.153 319.898 468.371 319.679 468.371 319.41V317.386C468.371 317.116 468.153 316.898 467.883 316.898Z" fill="#3F3D56"/>
<path d="M477.883 316.898H473.859C473.59 316.898 473.371 317.116 473.371 317.386V319.41C473.371 319.679 473.59 319.898 473.859 319.898H477.883C478.153 319.898 478.371 319.679 478.371 319.41V317.386C478.371 317.116 478.153 316.898 477.883 316.898Z" fill="#3F3D56"/>
<path d="M487.883 316.898H483.859C483.59 316.898 483.371 317.116 483.371 317.386V319.41C483.371 319.679 483.59 319.898 483.859 319.898H487.883C488.153 319.898 488.371 319.679 488.371 319.41V317.386C488.371 317.116 488.153 316.898 487.883 316.898Z" fill="#3F3D56"/>
<path d="M497.883 316.898H493.859C493.59 316.898 493.371 317.116 493.371 317.386V319.41C493.371 319.679 493.59 319.898 493.859 319.898H497.883C498.153 319.898 498.371 319.679 498.371 319.41V317.386C498.371 317.116 498.153 316.898 497.883 316.898Z" fill="#3F3D56"/>
<path d="M507.883 316.898H503.859C503.59 316.898 503.371 317.116 503.371 317.386V319.41C503.371 319.679 503.59 319.898 503.859 319.898H507.883C508.153 319.898 508.371 319.679 508.371 319.41V317.386C508.371 317.116 508.153 316.898 507.883 316.898Z" fill="#3F3D56"/>
<path d="M517.883 316.898H513.859C513.59 316.898 513.371 317.116 513.371 317.386V319.41C513.371 319.679 513.59 319.898 513.859 319.898H517.883C518.153 319.898 518.371 319.679 518.371 319.41V317.386C518.371 317.116 518.153 316.898 517.883 316.898Z" fill="#3F3D56"/>
<path d="M527.883 316.898H523.859C523.59 316.898 523.371 317.116 523.371 317.386V319.41C523.371 319.679 523.59 319.898 523.859 319.898H527.883C528.153 319.898 528.371 319.679 528.371 319.41V317.386C528.371 317.116 528.153 316.898 527.883 316.898Z" fill="#3F3D56"/>
<path d="M537.883 316.898H533.859C533.59 316.898 533.371 317.116 533.371 317.386V319.41C533.371 319.679 533.59 319.898 533.859 319.898H537.883C538.153 319.898 538.371 319.679 538.371 319.41V317.386C538.371 317.116 538.153 316.898 537.883 316.898Z" fill="#3F3D56"/>
<path d="M547.883 316.898H543.859C543.59 316.898 543.371 317.116 543.371 317.386V319.41C543.371 319.679 543.59 319.898 543.859 319.898H547.883C548.153 319.898 548.371 319.679 548.371 319.41V317.386C548.371 317.116 548.153 316.898 547.883 316.898Z" fill="#3F3D56"/>
<path d="M557.883 316.898H553.859C553.59 316.898 553.371 317.116 553.371 317.386V319.41C553.371 319.679 553.59 319.898 553.859 319.898H557.883C558.153 319.898 558.371 319.679 558.371 319.41V317.386C558.371 317.116 558.153 316.898 557.883 316.898Z" fill="#3F3D56"/>
<path d="M407.765 321.898H403.741C403.471 321.898 403.253 322.116 403.253 322.386V324.41C403.253 324.679 403.471 324.898 403.741 324.898H407.765C408.035 324.898 408.253 324.679 408.253 324.41V322.386C408.253 322.116 408.035 321.898 407.765 321.898Z" fill="#3F3D56"/>
<path d="M417.765 321.898H413.741C413.471 321.898 413.253 322.116 413.253 322.386V324.41C413.253 324.679 413.471 324.898 413.741 324.898H417.765C418.035 324.898 418.253 324.679 418.253 324.41V322.386C418.253 322.116 418.035 321.898 417.765 321.898Z" fill="#3F3D56"/>
<path d="M427.765 321.898H423.741C423.471 321.898 423.253 322.116 423.253 322.386V324.41C423.253 324.679 423.471 324.898 423.741 324.898H427.765C428.035 324.898 428.253 324.679 428.253 324.41V322.386C428.253 322.116 428.035 321.898 427.765 321.898Z" fill="#3F3D56"/>
<path d="M437.765 321.898H433.741C433.471 321.898 433.253 322.116 433.253 322.386V324.41C433.253 324.679 433.471 324.898 433.741 324.898H437.765C438.035 324.898 438.253 324.679 438.253 324.41V322.386C438.253 322.116 438.035 321.898 437.765 321.898Z" fill="#3F3D56"/>
<path d="M447.765 321.898H443.741C443.471 321.898 443.253 322.116 443.253 322.386V324.41C443.253 324.679 443.471 324.898 443.741 324.898H447.765C448.035 324.898 448.253 324.679 448.253 324.41V322.386C448.253 322.116 448.035 321.898 447.765 321.898Z" fill="#3F3D56"/>
<path d="M457.765 321.898H453.741C453.471 321.898 453.253 322.116 453.253 322.386V324.41C453.253 324.679 453.471 324.898 453.741 324.898H457.765C458.035 324.898 458.253 324.679 458.253 324.41V322.386C458.253 322.116 458.035 321.898 457.765 321.898Z" fill="#3F3D56"/>
<path d="M467.765 321.898H463.741C463.471 321.898 463.253 322.116 463.253 322.386V324.41C463.253 324.679 463.471 324.898 463.741 324.898H467.765C468.035 324.898 468.253 324.679 468.253 324.41V322.386C468.253 322.116 468.035 321.898 467.765 321.898Z" fill="#3F3D56"/>
<path d="M477.765 321.898H473.741C473.471 321.898 473.253 322.116 473.253 322.386V324.41C473.253 324.679 473.471 324.898 473.741 324.898H477.765C478.035 324.898 478.253 324.679 478.253 324.41V322.386C478.253 322.116 478.035 321.898 477.765 321.898Z" fill="#3F3D56"/>
<path d="M487.765 321.898H483.741C483.471 321.898 483.253 322.116 483.253 322.386V324.41C483.253 324.679 483.471 324.898 483.741 324.898H487.765C488.035 324.898 488.253 324.679 488.253 324.41V322.386C488.253 322.116 488.035 321.898 487.765 321.898Z" fill="#3F3D56"/>
<path d="M497.765 321.898H493.741C493.471 321.898 493.253 322.116 493.253 322.386V324.41C493.253 324.679 493.471 324.898 493.741 324.898H497.765C498.035 324.898 498.253 324.679 498.253 324.41V322.386C498.253 322.116 498.035 321.898 497.765 321.898Z" fill="#3F3D56"/>
<path d="M507.765 321.898H503.741C503.471 321.898 503.253 322.116 503.253 322.386V324.41C503.253 324.679 503.471 324.898 503.741 324.898H507.765C508.035 324.898 508.253 324.679 508.253 324.41V322.386C508.253 322.116 508.035 321.898 507.765 321.898Z" fill="#3F3D56"/>
<path d="M517.765 321.898H513.741C513.471 321.898 513.253 322.116 513.253 322.386V324.41C513.253 324.679 513.471 324.898 513.741 324.898H517.765C518.035 324.898 518.253 324.679 518.253 324.41V322.386C518.253 322.116 518.035 321.898 517.765 321.898Z" fill="#3F3D56"/>
<path d="M527.765 321.898H523.741C523.471 321.898 523.253 322.116 523.253 322.386V324.41C523.253 324.679 523.471 324.898 523.741 324.898H527.765C528.035 324.898 528.253 324.679 528.253 324.41V322.386C528.253 322.116 528.035 321.898 527.765 321.898Z" fill="#3F3D56"/>
<path d="M537.765 321.898H533.741C533.471 321.898 533.253 322.116 533.253 322.386V324.41C533.253 324.679 533.471 324.898 533.741 324.898H537.765C538.035 324.898 538.253 324.679 538.253 324.41V322.386C538.253 322.116 538.035 321.898 537.765 321.898Z" fill="#3F3D56"/>
<path d="M547.765 321.898H543.741C543.471 321.898 543.253 322.116 543.253 322.386V324.41C543.253 324.679 543.471 324.898 543.741 324.898H547.765C548.035 324.898 548.253 324.679 548.253 324.41V322.386C548.253 322.116 548.035 321.898 547.765 321.898Z" fill="#3F3D56"/>
<path d="M557.765 321.898H553.741C553.471 321.898 553.253 322.116 553.253 322.386V324.41C553.253 324.679 553.471 324.898 553.741 324.898H557.765C558.035 324.898 558.253 324.679 558.253 324.41V322.386C558.253 322.116 558.035 321.898 557.765 321.898Z" fill="#3F3D56"/>
<path d="M490.765 327.898H451.741C451.471 327.898 451.253 328.116 451.253 328.386V330.41C451.253 330.679 451.471 330.898 451.741 330.898H490.765C491.035 330.898 491.253 330.679 491.253 330.41V328.386C491.253 328.116 491.035 327.898 490.765 327.898Z" fill="#3F3D56"/>
<path d="M596.4 560.915L588.69 548.525L587.15 555.605C586.88 556.845 586.61 558.105 586.36 559.355C584.17 557.485 581.84 555.755 579.56 554.095C572.56 549.015 565.563 543.928 558.57 538.835L560.76 551.535C562.11 559.355 563.52 567.335 566.86 574.485C567.23 575.295 567.63 576.095 568.06 576.875H600.6C600.862 576.15 601.043 575.399 601.14 574.635C601.148 574.585 601.152 574.535 601.15 574.485C601.66 569.633 598.98 565.065 596.4 560.915Z" fill="#F0F0F0"/>
<path d="M190.4 560.915L182.69 548.525L181.15 555.605C180.88 556.845 180.61 558.105 180.36 559.355C178.17 557.485 175.84 555.755 173.56 554.095C166.56 549.015 159.563 543.928 152.57 538.835L154.76 551.535C156.11 559.355 157.52 567.335 160.86 574.485C161.23 575.295 161.63 576.095 162.06 576.875H194.6C194.862 576.15 195.043 575.399 195.14 574.635C195.148 574.585 195.152 574.535 195.15 574.485C195.66 569.633 192.98 565.065 190.4 560.915Z" fill="#F0F0F0"/>
<path d="M774.941 578.233L499.191 578.54C498.881 578.531 498.587 578.402 498.371 578.179C498.155 577.957 498.034 577.659 498.034 577.35C498.034 577.04 498.155 576.742 498.371 576.52C498.587 576.297 498.881 576.168 499.191 576.159L774.941 575.852C775.251 575.861 775.545 575.99 775.761 576.213C775.977 576.435 776.097 576.733 776.097 577.043C776.097 577.352 775.977 577.65 775.761 577.872C775.545 578.095 775.251 578.224 774.941 578.233Z" fill="#CACACA"/>
<path d="M601.476 86.278H346.152C345.888 86.2697 345.638 86.1591 345.454 85.9696C345.271 85.78 345.168 85.5265 345.168 85.2625C345.168 84.9986 345.271 84.745 345.454 84.5554C345.638 84.3659 345.888 84.2553 346.152 84.247H601.476C601.74 84.2553 601.99 84.3659 602.174 84.5554C602.357 84.745 602.46 84.9986 602.46 85.2625C602.46 85.5265 602.357 85.78 602.174 85.9696C601.99 86.1591 601.74 86.2697 601.476 86.278Z" fill="#CACACA"/>
<path d="M363.533 79.064C366.819 79.064 369.483 76.3406 369.483 72.981C369.483 69.6215 366.819 66.898 363.533 66.898C360.247 66.898 357.583 69.6215 357.583 72.981C357.583 76.3406 360.247 79.064 363.533 79.064Z" fill="#3F3D56"/>
<path d="M384.088 79.064C387.374 79.064 390.038 76.3406 390.038 72.981C390.038 69.6215 387.374 66.898 384.088 66.898C380.802 66.898 378.138 69.6215 378.138 72.981C378.138 76.3406 380.802 79.064 384.088 79.064Z" fill="#3F3D56"/>
<path d="M404.644 79.064C407.93 79.064 410.594 76.3406 410.594 72.981C410.594 69.6215 407.93 66.898 404.644 66.898C401.358 66.898 398.694 69.6215 398.694 72.981C398.694 76.3406 401.358 79.064 404.644 79.064Z" fill="#3F3D56"/>
<path d="M589.099 68.405H574.499C574.351 68.4006 574.204 68.4259 574.066 68.4794C573.928 68.533 573.802 68.6137 573.695 68.7168C573.589 68.8199 573.505 68.9433 573.447 69.0796C573.389 69.2159 573.36 69.3625 573.36 69.5105C573.36 69.6586 573.389 69.8051 573.447 69.9414C573.505 70.0778 573.589 70.2011 573.695 70.3042C573.802 70.4073 573.928 70.4881 574.066 70.5416C574.204 70.5952 574.351 70.6205 574.499 70.616H589.099C589.247 70.6205 589.394 70.5952 589.532 70.5416C589.67 70.4881 589.796 70.4073 589.902 70.3042C590.009 70.2011 590.093 70.0778 590.151 69.9414C590.208 69.8051 590.238 69.6586 590.238 69.5105C590.238 69.3625 590.208 69.2159 590.151 69.0796C590.093 68.9433 590.009 68.8199 589.902 68.7168C589.796 68.6137 589.67 68.533 589.532 68.4794C589.394 68.4259 589.247 68.4006 589.099 68.405Z" fill="#3F3D56"/>
<path d="M589.099 72.555H574.499C574.351 72.5506 574.204 72.5759 574.066 72.6294C573.928 72.683 573.802 72.7637 573.695 72.8668C573.589 72.9699 573.505 73.0932 573.447 73.2296C573.389 73.3659 573.36 73.5125 573.36 73.6605C573.36 73.8085 573.389 73.9551 573.447 74.0914C573.505 74.2278 573.589 74.3511 573.695 74.4542C573.802 74.5573 573.928 74.638 574.066 74.6916C574.204 74.7452 574.351 74.7705 574.499 74.766H589.099C589.247 74.7705 589.394 74.7452 589.532 74.6916C589.67 74.638 589.796 74.5573 589.902 74.4542C590.009 74.3511 590.093 74.2278 590.151 74.0914C590.208 73.9551 590.238 73.8085 590.238 73.6605C590.238 73.5125 590.208 73.3659 590.151 73.2296C590.093 73.0932 590.009 72.9699 589.902 72.8668C589.796 72.7637 589.67 72.683 589.532 72.6294C589.394 72.5759 589.247 72.5506 589.099 72.555Z" fill="#3F3D56"/>
<path d="M589.099 76.7H574.499C574.351 76.6955 574.204 76.7208 574.066 76.7744C573.928 76.8279 573.802 76.9087 573.695 77.0118C573.589 77.1149 573.505 77.2382 573.447 77.3746C573.389 77.5109 573.36 77.6575 573.36 77.8055C573.36 77.9535 573.389 78.1001 573.447 78.2364C573.505 78.3728 573.589 78.4961 573.695 78.5992C573.802 78.7023 573.928 78.783 574.066 78.8366C574.204 78.8901 574.351 78.9154 574.499 78.911H589.099C589.247 78.9154 589.394 78.8901 589.532 78.8366C589.67 78.783 589.796 78.7023 589.902 78.5992C590.009 78.4961 590.093 78.3728 590.151 78.2364C590.208 78.1001 590.238 77.9535 590.238 77.8055C590.238 77.6575 590.208 77.5109 590.151 77.3746C590.093 77.2382 590.009 77.1149 589.902 77.0118C589.796 76.9087 589.67 76.8279 589.532 76.7744C589.394 76.7208 589.247 76.6955 589.099 76.7Z" fill="#3F3D56"/>
<path d="M494.429 141.596H462.525C460.129 141.596 458.186 143.539 458.186 145.935C458.186 148.331 460.129 150.274 462.525 150.274H494.429C496.825 150.274 498.768 148.331 498.768 145.935C498.768 143.539 496.825 141.596 494.429 141.596Z" fill="#FD8079"/>
<path d="M515.039 158.953H441.915C439.519 158.953 437.576 160.896 437.576 163.292C437.576 165.688 439.519 167.631 441.915 167.631H515.039C517.435 167.631 519.378 165.688 519.378 163.292C519.378 160.896 517.435 158.953 515.039 158.953Z" fill="#E6E6E6"/>
<path d="M515.039 176.308H441.915C439.519 176.308 437.576 178.251 437.576 180.647C437.576 183.043 439.519 184.986 441.915 184.986H515.039C517.435 184.986 519.378 183.043 519.378 180.647C519.378 178.251 517.435 176.308 515.039 176.308Z" fill="#E6E6E6"/>
<path d="M372.252 242.897C372.258 246.471 371.621 250.018 370.372 253.367H342.322C341.047 253.365 339.825 252.857 338.923 251.956C338.022 251.054 337.514 249.832 337.512 248.557V213.277C339.079 213.024 340.664 212.896 342.252 212.897C350.208 212.897 357.839 216.058 363.465 221.684C369.091 227.31 372.252 234.941 372.252 242.897Z" fill="#E6E6E6"/>
<path d="M276.941 578.233L1.19098 578.54C0.881212 578.531 0.587149 578.402 0.371216 578.179C0.155283 577.957 0.0344849 577.659 0.0344849 577.35C0.0344849 577.04 0.155283 576.742 0.371216 576.52C0.587149 576.297 0.881212 576.168 1.19098 576.159L276.941 575.852C277.1 575.847 277.259 575.875 277.407 575.933C277.556 575.99 277.691 576.077 277.805 576.188C277.92 576.299 278.01 576.432 278.073 576.579C278.135 576.726 278.166 576.883 278.166 577.043C278.166 577.202 278.135 577.36 278.073 577.506C278.01 577.653 277.92 577.786 277.805 577.897C277.691 578.008 277.556 578.095 277.407 578.153C277.259 578.21 277.1 578.238 276.941 578.233Z" fill="#CACACA"/>
<path d="M148.242 35.963C148.242 35.963 175.32 16.501 178.705 25.809C182.09 35.117 158.396 52.044 158.396 52.044L148.242 35.963Z" fill="#FFB9B9"/>
<path d="M244.282 60.9251C244.282 94.5731 229.795 95.6181 206.195 95.6181C182.595 95.6181 158.818 94.5731 158.818 60.9251C158.818 27.2771 177.95 9.15527e-05 201.55 9.15527e-05C225.15 9.15527e-05 244.282 27.2771 244.282 60.9251Z" fill="#252220"/>
<path d="M186.319 60.5019C186.319 60.5019 189.704 85.8869 173.626 87.5799C157.548 89.2729 226.089 94.3489 226.089 94.3489C226.089 94.3489 208.319 78.2719 217.627 65.5789C226.935 52.8859 186.319 60.5019 186.319 60.5019Z" fill="#FFB9B9"/>
<path opacity="0.1" d="M186.319 60.5019C186.319 60.5019 189.704 85.8869 173.626 87.5799C157.548 89.2729 226.089 94.3489 226.089 94.3489C226.089 94.3489 208.319 78.2719 217.627 65.5789C226.935 52.8859 186.319 60.5019 186.319 60.5019Z" fill="black"/>
<path d="M100.855 514.055L94.9319 563.98C94.9319 563.98 65.316 600.366 83.9319 597.827C102.548 595.288 114.394 592.75 114.394 589.365C114.394 585.98 116.933 572.441 119.471 572.441C122.009 572.441 122.01 581.749 122.01 581.749C124.913 580.511 127.739 579.098 130.472 577.518C131.318 576.672 132.164 547.902 132.164 547.902C132.164 547.902 134.703 533.517 129.625 526.748C124.547 519.979 125.394 514.055 125.394 514.055H100.855Z" fill="#090814"/>
<path d="M237.093 510.67C237.093 510.67 234.554 560.594 231.17 563.133C227.786 565.672 218.477 602.057 235.401 596.98C252.325 591.903 259.94 586.826 259.94 583.441C259.94 580.056 259.94 556.363 261.632 551.286C263.324 546.209 261.632 536.901 260.786 536.055C259.94 535.209 258.247 511.516 258.247 511.516L237.093 510.67Z" fill="#090814"/>
<path d="M144.856 217.045C144.856 217.045 117.778 294.045 116.086 310.971C114.394 327.897 117.778 385.437 117.778 385.437C117.778 385.437 93.2392 515.747 98.3162 516.593C103.393 517.439 127.086 520.824 127.932 516.593C128.778 512.362 132.163 506.439 131.317 503.9C130.471 501.361 133.856 492.053 133.856 486.976C133.856 481.899 149.933 424.359 149.087 420.128C148.241 415.897 163.472 353.28 166.011 348.203C168.55 343.126 175.319 307.586 175.319 307.586C175.319 307.586 213.398 411.667 214.243 414.205C215.088 416.743 218.474 420.974 216.782 421.821C215.09 422.668 219.321 428.59 219.321 428.59C219.321 428.59 233.706 494.59 233.706 496.284C233.706 497.978 232.014 511.515 235.398 512.362C238.782 513.209 259.937 518.285 261.63 512.362C263.323 506.439 251.475 407.437 251.475 407.437C251.475 407.437 237.09 364.282 241.321 353.281C245.552 342.28 237.09 276.281 233.705 271.202C230.32 266.123 229.474 235.662 229.474 235.662L144.856 217.045Z" fill="#090814"/>
<path d="M201.128 74.4649C216.083 74.4649 228.206 62.3417 228.206 47.3869C228.206 32.4322 216.083 20.3089 201.128 20.3089C186.174 20.3089 174.05 32.4322 174.05 47.3869C174.05 62.3417 186.174 74.4649 201.128 74.4649Z" fill="#FFB9B9"/>
<path d="M186.317 81.6561C186.317 81.6561 216.779 82.502 218.472 79.964C220.165 77.426 262.472 85.8871 262.472 102.811C262.472 119.735 237.933 185.737 237.933 185.737C237.933 185.737 228.625 233.123 231.164 238.2C233.703 243.277 137.238 227.2 139.777 218.738C142.316 210.276 156.701 191.66 138.085 175.583C119.469 159.506 111.853 142.583 111.853 142.583L133.853 84.197C133.853 84.197 155.853 80.812 160.931 84.197C166.009 87.582 186.317 81.6561 186.317 81.6561Z" fill="#FD8079"/>
<path d="M117.778 146.812L111.855 142.581C111.855 142.581 56.855 85.041 71.238 74.04C85.621 63.039 106.778 52.886 116.932 52.04C127.086 51.194 135.548 43.578 135.548 43.578C135.548 43.578 146.548 24.116 155.01 36.809C163.472 49.502 172.78 53.733 160.933 57.964C149.086 62.195 141.471 60.502 135.548 64.733C129.625 68.964 106.778 75.733 116.932 78.272C122.755 79.6833 128.423 81.6673 133.855 84.195L144.855 103.657L117.778 146.812Z" fill="#FD8079"/>
<path d="M213.396 289.817C213.396 289.817 191.396 321.972 207.473 320.279C223.55 318.586 231.166 296.586 231.166 296.586L213.396 289.817Z" fill="#FFB9B9"/>
<path d="M256.553 98.5799L262.476 102.811C262.476 102.811 281.938 209.43 262.476 237.354C243.014 265.278 241.322 263.585 241.322 263.585C241.322 263.585 237.937 261.046 236.245 277.97C234.553 294.894 237.091 301.663 232.014 301.663C226.937 301.663 204.09 296.586 205.782 292.355C207.474 288.124 218.475 263.585 219.321 257.662C220.167 251.739 224.398 238.2 226.091 230.584C227.784 222.968 218.475 218.737 222.706 202.66C226.937 186.583 232.86 157.812 232.86 151.889C232.86 145.966 256.553 98.5799 256.553 98.5799Z" fill="#FD8079"/>
<path d="M227.36 23.2731C227.36 32.3861 214.86 39.7731 199.436 39.7731C184.012 39.7731 169.822 44.6531 169.822 35.5401C169.822 26.4271 184.016 6.77011 199.438 6.77011C214.86 6.77011 227.36 14.1571 227.36 23.2731Z" fill="#252220"/>
<path d="M159.005 63C159.005 63 138 125.5 187.714 129.844C210.5 125.5 185.5 71.5 185.5 71.5L159.005 63Z" fill="#252220"/>
<path d="M246.926 396.051H171.599C169.58 396.049 167.644 395.246 166.217 393.818C164.789 392.391 163.986 390.455 163.984 388.436V319.513C163.986 317.494 164.789 315.558 166.217 314.131C167.644 312.703 169.58 311.9 171.599 311.898H246.929C248.948 311.9 250.884 312.703 252.311 314.131C253.739 315.558 254.542 317.494 254.544 319.513V388.436C254.542 390.455 253.738 392.392 252.31 393.819C250.882 395.247 248.945 396.05 246.926 396.051Z" fill="#3F3D56"/>
<path d="M241.631 389.705H176.891C175.098 389.703 173.38 388.99 172.113 387.722C170.845 386.455 170.132 384.737 170.13 382.944V325.006C170.132 323.214 170.845 321.495 172.113 320.228C173.38 318.96 175.098 318.247 176.891 318.245H241.631C243.423 318.247 245.142 318.96 246.409 320.228C247.677 321.495 248.39 323.214 248.392 325.006V382.944C248.39 384.737 247.677 386.455 246.409 387.722C245.142 388.99 243.423 389.703 241.631 389.705Z" fill="white"/>
<path d="M235.173 335.113H183.35C182.902 335.113 182.472 334.935 182.155 334.618C181.838 334.301 181.66 333.871 181.66 333.423C181.66 332.975 181.838 332.545 182.155 332.228C182.472 331.911 182.902 331.733 183.35 331.733H235.173C235.621 331.733 236.051 331.911 236.368 332.228C236.685 332.545 236.863 332.975 236.863 333.423C236.863 333.871 236.685 334.301 236.368 334.618C236.051 334.935 235.621 335.113 235.173 335.113Z" fill="#FD8079"/>
<path d="M235.173 341.791H183.35C182.902 341.791 182.472 341.613 182.155 341.296C181.838 340.979 181.66 340.549 181.66 340.101C181.66 339.653 181.838 339.223 182.155 338.906C182.472 338.589 182.902 338.411 183.35 338.411H235.173C235.621 338.411 236.051 338.589 236.368 338.906C236.685 339.223 236.863 339.653 236.863 340.101C236.863 340.549 236.685 340.979 236.368 341.296C236.051 341.613 235.621 341.791 235.173 341.791Z" fill="#FD8079"/>
<path d="M205.814 348.469H183.35C182.902 348.469 182.472 348.291 182.155 347.974C181.838 347.657 181.66 347.227 181.66 346.779C181.66 346.331 181.838 345.901 182.155 345.584C182.472 345.267 182.902 345.089 183.35 345.089H205.814C206.262 345.089 206.692 345.267 207.009 345.584C207.326 345.901 207.504 346.331 207.504 346.779C207.504 347.227 207.326 347.657 207.009 347.974C206.692 348.291 206.262 348.469 205.814 348.469Z" fill="#FD8079"/>
<path d="M235.173 362.457H183.35C182.902 362.457 182.472 362.279 182.155 361.962C181.838 361.645 181.66 361.215 181.66 360.767C181.66 360.319 181.838 359.889 182.155 359.572C182.472 359.255 182.902 359.077 183.35 359.077H235.173C235.621 359.077 236.051 359.255 236.368 359.572C236.685 359.889 236.863 360.319 236.863 360.767C236.863 361.215 236.685 361.645 236.368 361.962C236.051 362.279 235.621 362.457 235.173 362.457Z" fill="#E4E4E4"/>
<path d="M235.173 369.135H183.35C182.902 369.135 182.472 368.957 182.155 368.64C181.838 368.323 181.66 367.893 181.66 367.445C181.66 366.997 181.838 366.567 182.155 366.25C182.472 365.933 182.902 365.755 183.35 365.755H235.173C235.621 365.755 236.051 365.933 236.368 366.25C236.685 366.567 236.863 366.997 236.863 367.445C236.863 367.893 236.685 368.323 236.368 368.64C236.051 368.957 235.621 369.135 235.173 369.135Z" fill="#E4E4E4"/>
<path d="M205.814 375.813H183.35C182.902 375.813 182.472 375.635 182.155 375.318C181.838 375.001 181.66 374.571 181.66 374.123C181.66 373.675 181.838 373.245 182.155 372.928C182.472 372.611 182.902 372.433 183.35 372.433H205.814C206.262 372.433 206.692 372.611 207.009 372.928C207.326 373.245 207.504 373.675 207.504 374.123C207.504 374.571 207.326 375.001 207.009 375.318C206.692 375.635 206.262 375.813 205.814 375.813Z" fill="#E4E4E4"/>
</g>
<defs>
<clipPath id="clip0_0_1">
<rect width="776.131" height="597.953" fill="white"/>
</clipPath>
</defs>
</svg>
