<svg width="922" height="728" viewBox="0 0 922 728" fill="none" xmlns="http://www.w3.org/2000/svg">
<g clip-path="url(#clip0_0_1)">
<path d="M209.629 373.237C240.028 373.237 264.671 348.594 264.671 318.196C264.671 287.797 240.028 263.154 209.629 263.154C179.231 263.154 154.588 287.797 154.588 318.196C154.588 348.594 179.231 373.237 209.629 373.237Z" fill="#FF6584"/>
<path d="M550.62 380.518C550.62 488.882 486.199 526.719 406.732 526.719C327.264 526.719 262.843 488.882 262.843 380.518C262.843 272.153 406.732 134.297 406.732 134.297C406.732 134.297 550.62 272.153 550.62 380.518Z" fill="#FD8079"/>
<path d="M401.49 510.143L402.963 419.451L464.292 307.253L403.194 405.225L403.857 364.446L446.124 283.272L404.032 353.655L405.224 280.313L450.485 215.688L405.411 268.78L406.155 134.297L401.477 312.328L401.862 304.984L355.844 234.547L401.124 319.082L396.836 400.993L396.708 398.819L343.659 324.694L396.548 406.499L396.011 416.743L395.915 416.897L395.959 417.738L385.081 625.552H399.615L401.359 518.212L454.118 436.607L401.49 510.143Z" fill="#3F3D56"/>
<path d="M689.452 482.869C689.452 591.233 625.031 629.07 545.564 629.07C466.096 629.07 401.675 591.233 401.675 482.869C401.675 374.504 545.564 236.647 545.564 236.647C545.564 236.647 689.452 374.504 689.452 482.869Z" fill="#3F3D56"/>
<path d="M540.322 612.493L541.796 521.802L603.124 409.604L542.027 507.575L542.689 466.797L584.957 385.623L542.864 456.005V456.006L544.056 382.663L589.317 318.039L544.243 371.131L544.988 236.647L540.309 414.679L540.694 407.335L494.676 336.898L539.956 421.433L535.668 503.343L535.54 501.169L482.491 427.045L535.38 508.85L534.844 519.094L534.747 519.248L534.791 520.089L523.913 727.902H538.447L540.191 620.562L592.95 538.958L540.322 612.493Z" fill="#F2F2F2"/>
<path d="M418.881 482.869C418.881 591.233 354.46 629.07 274.993 629.07C195.526 629.07 131.105 591.233 131.105 482.869C131.105 374.504 274.993 236.647 274.993 236.647C274.993 236.647 418.881 374.504 418.881 482.869Z" fill="#3F3D56"/>
<path d="M269.751 612.493L271.225 521.802L332.554 409.604L271.456 507.575L272.118 466.797L314.386 385.623L272.294 456.005V456.006L273.485 382.663L318.746 318.039L273.672 371.131L274.417 236.647L269.739 414.679L270.123 407.335L224.106 336.898L269.385 421.433L265.097 503.343L264.97 501.169L211.92 427.045L264.809 508.85L264.273 519.094L264.177 519.248L264.221 520.089L253.342 727.902H267.876L269.62 620.562L322.38 538.958L269.751 612.493Z" fill="#F2F2F2"/>
<path d="M410.395 726.987C341.576 726.987 274.885 703.125 221.687 659.467C168.489 615.808 132.075 555.055 118.649 487.558C105.222 420.061 115.615 349.997 148.056 289.304C180.497 228.611 232.979 181.044 296.56 154.708C360.141 128.372 430.886 124.896 496.742 144.873C562.598 164.85 619.489 207.044 657.723 264.265C695.957 321.486 713.168 390.194 706.422 458.682C699.677 527.169 669.393 591.2 620.73 639.862C593.173 667.571 560.394 689.538 524.289 704.493C488.185 719.448 449.473 727.093 410.395 726.987ZM410.395 134.337C247.627 134.337 115.205 266.758 115.205 429.526C115.205 592.294 247.627 724.716 410.395 724.716C573.162 724.716 705.584 592.294 705.584 429.526C705.584 266.758 573.162 134.337 410.395 134.337Z" fill="#2F2E41"/>
<path d="M653.626 599.234V725.905H167.207V599.234L410.416 472.562L410.923 472.825L653.626 599.234Z" fill="#F2F2F2"/>
<path opacity="0.1" d="M653.626 599.234V725.905H410.923V472.825L653.626 599.234Z" fill="black"/>
<path d="M389.642 550.085L371.402 556.972V529.818L389.642 521.823V550.085Z" fill="#3F3D56"/>
<path d="M187.981 626.088L181.901 628.387V611.901L187.981 609.213V626.088Z" fill="#3F3D56"/>
<path d="M209.262 618.994L202.168 621.653V603.794L209.262 600.68V618.994Z" fill="#3F3D56"/>
<path d="M232.569 609.874L224.462 612.923V593.66L232.569 590.092V609.874Z" fill="#3F3D56"/>
<path d="M260.944 598.727L250.81 602.552V582.513L260.944 578.067V598.727Z" fill="#3F3D56"/>
<path d="M295.398 585.553L283.238 590.149V568.326L295.398 562.992V585.553Z" fill="#3F3D56"/>
<path d="M336.947 570.352L322.76 575.697V551.098L336.947 544.879V570.352Z" fill="#3F3D56"/>
<path d="M187.981 659.529L181.901 661.058V644.329L187.981 642.406V659.529Z" fill="#3F3D56"/>
<path d="M209.262 654.463L202.168 656.239V638.249L209.262 636.013V654.463Z" fill="#3F3D56"/>
<path d="M232.569 648.382L224.462 650.419V631.155L232.569 628.598V648.382Z" fill="#3F3D56"/>
<path d="M260.944 641.289L250.81 643.834V623.048L260.944 619.859V641.289Z" fill="#3F3D56"/>
<path d="M295.398 632.168L283.238 635.237V612.914L295.398 609.089V632.168Z" fill="#3F3D56"/>
<path d="M336.947 622.035L321.746 625.858V600.754L336.947 595.971V622.035Z" fill="#3F3D56"/>
<path d="M389.642 608.861L371.402 613.446V585.553L389.642 579.831V608.861Z" fill="#3F3D56"/>
<path d="M389.642 666.623L371.402 668.945V641.289L389.642 637.839V666.623Z" fill="#3F3D56"/>
<path d="M187.981 691.957L181.901 692.739V676.757L187.981 675.598V691.957Z" fill="#3F3D56"/>
<path d="M209.262 689.931L202.168 690.825V673.717L209.262 672.386V689.931Z" fill="#3F3D56"/>
<path d="M232.569 686.89L224.462 687.916V668.65L232.569 667.105V686.89Z" fill="#3F3D56"/>
<path d="M260.944 682.837L250.81 684.132V663.583L260.944 661.65V682.837Z" fill="#3F3D56"/>
<path d="M295.398 678.783L283.238 680.326V657.503L295.398 655.187V678.783Z" fill="#3F3D56"/>
<path d="M336.947 673.717L321.746 675.638V650.409L336.947 647.524V673.717Z" fill="#3F3D56"/>
<path d="M633.865 626.088L639.946 628.387V611.901L633.865 609.213V626.088Z" fill="#3F3D56"/>
<path d="M612.584 618.994L619.678 621.653V603.794L612.584 600.68V618.994Z" fill="#3F3D56"/>
<path d="M589.277 609.874L597.384 612.923V593.66L589.277 590.092V609.874Z" fill="#3F3D56"/>
<path d="M560.902 598.727L571.036 602.552V582.513L560.902 578.067V598.727Z" fill="#3F3D56"/>
<path d="M526.448 585.553L538.608 590.149V568.326L526.448 562.992V585.553Z" fill="#3F3D56"/>
<path d="M484.899 570.352L499.087 575.697V551.098L484.899 544.879V570.352Z" fill="#3F3D56"/>
<path d="M633.865 659.529L639.946 661.058V644.329L633.865 642.406V659.529Z" fill="#3F3D56"/>
<path d="M612.584 654.463L619.678 656.239V638.249L612.584 636.013V654.463Z" fill="#3F3D56"/>
<path d="M589.277 648.382L597.384 650.419V631.155L589.277 628.598V648.382Z" fill="#3F3D56"/>
<path d="M560.902 641.289L571.036 643.834V623.048L560.902 619.859V641.289Z" fill="#3F3D56"/>
<path d="M526.448 632.168L538.608 635.237V612.914L526.448 609.089V632.168Z" fill="#3F3D56"/>
<path d="M484.899 622.035L500.1 625.858V600.754L484.899 595.971V622.035Z" fill="#3F3D56"/>
<path d="M432.204 608.861L450.445 613.446V585.553L432.204 579.831V608.861Z" fill="#3F3D56"/>
<path d="M432.204 666.623L450.445 668.945V641.289L432.204 637.839V666.623Z" fill="#3F3D56"/>
<path d="M633.865 691.957L639.946 692.739V676.757L633.865 675.598V691.957Z" fill="#3F3D56"/>
<path d="M612.584 689.931L619.678 690.825V673.717L612.584 672.386V689.931Z" fill="#3F3D56"/>
<path d="M589.277 686.89L597.384 687.916V668.65L589.277 667.105V686.89Z" fill="#3F3D56"/>
<path d="M560.902 682.837L571.036 684.132V663.583L560.902 661.65V682.837Z" fill="#3F3D56"/>
<path d="M526.448 678.783L538.608 680.326V657.503L526.448 655.187V678.783Z" fill="#3F3D56"/>
<path d="M484.899 673.717L500.1 675.638V650.409L484.899 647.524V673.717Z" fill="#3F3D56"/>
<path d="M449.431 557.179L431.191 550.3V521.711L449.431 529.709V557.179Z" fill="#3F3D56"/>
<path d="M620.707 703.349H619.22V727.139H620.707V703.349Z" fill="#2F2E41"/>
<path d="M638.225 709.825H637.171V726.682H638.225V709.825Z" fill="#2F2E41"/>
<path d="M653.792 711.883H652.866V726.699H653.792V711.883Z" fill="#2F2E41"/>
<path d="M577.116 695.808V726.412L557.356 726.382L537.595 726.351V691.957L557.356 693.883L577.116 695.808Z" fill="#3F3D56"/>
<path d="M244.73 726.412L284.251 726.349V691.957L244.73 695.804V726.412Z" fill="#3F3D56"/>
<path d="M885.5 725.399H0V727.425H885.5V725.399Z" fill="#2F2E41"/>
<path opacity="0.1" d="M577.116 695.808V726.412L557.356 726.382V693.883L577.116 695.808Z" fill="black"/>
<path d="M408.39 698.544H406.363V726.919H408.39V698.544Z" fill="#2F2E41"/>
<path d="M419.072 688.443C419.072 698.386 413.761 706.683 407.376 706.968C401.169 707.245 396.262 699.805 396.262 690.356C396.262 680.908 408.39 654.969 408.39 654.969C408.39 654.969 419.072 678.5 419.072 688.443Z" fill="#FD8079"/>
<path d="M169.955 707.638H168.746V724.562H169.955V707.638Z" fill="#2F2E41"/>
<path d="M176.327 701.612C176.327 707.543 173.159 712.492 169.351 712.662C165.648 712.828 162.722 708.39 162.722 702.754C162.722 697.118 169.955 681.646 169.955 681.646C169.955 681.646 176.327 695.682 176.327 701.612Z" fill="#FD8079"/>
<path d="M628.141 704.288C628.141 709.928 624.587 714.334 619.964 714.117C615.055 713.887 610.847 708.592 610.847 702.303C610.847 696.015 619.964 680.304 619.964 680.304C619.964 680.304 628.141 698.647 628.141 704.288Z" fill="#FD8079"/>
<path d="M643.492 710.49C643.492 714.486 640.974 717.608 637.698 717.455C634.219 717.291 631.238 713.539 631.238 709.083C631.238 704.627 637.698 693.495 637.698 693.495C637.698 693.495 643.492 706.493 643.492 710.49Z" fill="#FD8079"/>
<path d="M658.422 712.468C658.422 715.98 656.208 718.724 653.329 718.589C650.272 718.446 647.651 715.148 647.651 711.232C647.651 707.316 653.329 697.531 653.329 697.531C653.329 697.531 658.422 708.955 658.422 712.468Z" fill="#FD8079"/>
<path d="M665.618 163.251C665.618 163.251 655.754 192.842 661.234 199.418C666.714 205.993 628.355 179.69 628.355 179.69L649.179 155.579L665.618 163.251Z" fill="#FFB9B9"/>
<path d="M643.124 163.203C670.3 163.203 692.331 141.172 692.331 113.996C692.331 86.8196 670.3 64.789 643.124 64.789C615.948 64.789 593.917 86.8196 593.917 113.996C593.917 141.172 615.948 163.203 643.124 163.203Z" fill="#252220"/>
<path d="M834.397 496.424L809.19 516.152L794.942 493.136L820.149 475.601L834.397 496.424Z" fill="#FFB9B9"/>
<path d="M798.778 644.928L805.354 676.711L823.985 701.918C823.985 701.918 874.4 717.261 840.425 724.933C806.45 732.605 798.778 719.453 798.778 719.453L774.667 698.63V727.125H759.323L756.035 686.574C756.035 686.574 753.843 674.519 763.707 661.367L765.899 641.64L798.778 644.928Z" fill="#696969"/>
<path d="M671.646 251.476L680.414 301.89C680.414 301.89 773.571 292.027 780.146 310.658C786.722 329.29 788.914 334.769 788.914 334.769L770.283 341.345L761.515 324.906C758.844 323.96 756.009 323.57 753.182 323.758C750.355 323.946 747.597 324.71 745.076 326.002C736.308 330.386 659.59 341.345 654.11 327.098C648.631 312.85 633.287 260.244 633.287 260.244L656.302 241.612L671.646 251.476Z" fill="#DD9F9F"/>
<path opacity="0.1" d="M673.359 250.864L682.127 301.278C682.127 301.278 775.284 291.414 781.859 310.046C788.435 328.677 790.627 334.157 790.627 334.157L771.996 340.733L763.228 324.293C760.557 323.348 757.722 322.957 754.895 323.146C752.068 323.334 749.31 324.098 746.789 325.389C738.021 329.773 661.303 340.733 655.823 326.485C650.344 312.238 635 259.631 635 259.631L658.015 241L673.359 250.864Z" fill="#FFB9B9"/>
<path d="M723.156 397.239L730.828 423.543L750.555 524.371C750.555 524.371 752.747 598.897 756.035 607.665C759.323 616.433 759.323 617.529 756.035 620.816C752.747 624.104 746.172 635.064 756.035 641.64C765.899 648.216 800.97 655.887 802.066 648.216C803.162 640.544 803.162 628.488 802.066 623.008C800.97 617.529 805.354 532.043 805.354 532.043L792.202 401.623L747.267 380.8L723.156 397.239Z" fill="#312724"/>
<path opacity="0.1" d="M723 398.439L730.672 424.743L750.399 525.572C750.399 525.572 752.591 600.097 755.879 608.865C759.167 617.633 759.167 618.729 755.879 622.017C752.591 625.304 746.015 636.264 755.879 642.84C765.743 649.416 800.814 657.087 801.91 649.416C803.006 641.744 803.006 629.688 801.91 624.208C800.814 618.729 805.197 533.243 805.197 533.243L792.046 402.823L747.111 382L723 398.439Z" fill="#382D2A"/>
<path d="M770.283 294.219L794.394 340.249C794.394 340.249 932.486 401.623 920.43 426.831C908.374 452.038 841.521 499.164 841.521 499.164C841.521 499.164 838.233 517.796 828.369 512.316C818.505 506.836 794.394 478.341 796.586 475.053C798.778 471.765 806.45 464.093 809.738 465.189C813.025 466.285 851.384 436.694 851.384 436.694L785.626 420.255C785.626 420.255 706.717 418.063 702.333 380.8C697.949 343.537 702.333 336.961 702.333 336.961L696.853 324.906L741.788 297.507L770.283 294.219Z" fill="#312724"/>
<path d="M804.258 476.149L781.242 496.972C781.242 496.972 761.515 488.205 749.459 491.493C737.404 494.78 716.58 496.972 716.58 496.972L719.868 515.604L747.831 510.445L725.348 541.907C725.348 541.907 725.348 591.225 739.596 591.225C753.843 591.225 749.459 561.634 749.459 561.634L793.298 527.659C793.298 527.659 815.217 518.892 817.409 518.892C819.601 518.892 804.258 476.149 804.258 476.149Z" fill="#696969"/>
<path d="M661.234 172.018C681.814 172.018 698.497 155.335 698.497 134.756C698.497 114.176 681.814 97.4928 661.234 97.4928C640.654 97.4928 623.971 114.176 623.971 134.756C623.971 155.335 640.654 172.018 661.234 172.018Z" fill="#FFB9B9"/>
<path d="M624.519 163.799C624.519 163.799 642.055 159.415 647.535 163.799C653.014 168.183 654.11 178.046 661.782 179.142C669.454 180.238 676.03 180.238 677.126 181.334C678.222 182.43 703.429 213.117 703.429 213.117C703.429 213.117 718.772 221.885 722.06 233.941C725.348 245.996 758.227 286.547 762.611 290.931C766.995 295.315 734.116 317.234 723.156 324.906C712.197 332.577 680.414 335.865 670.55 318.33C660.686 300.794 606.984 186.814 624.519 163.799Z" fill="#A85D56"/>
<path d="M666.166 235.036L674.934 285.451C674.934 285.451 768.091 275.587 774.667 294.219C781.242 312.85 783.434 318.33 783.434 318.33L764.803 324.906L756.035 308.466C753.365 307.521 750.529 307.13 747.702 307.318C744.876 307.507 742.117 308.27 739.596 309.562C730.828 313.946 654.11 324.906 648.631 310.658C643.151 296.411 627.807 243.804 627.807 243.804L650.823 225.173L666.166 235.036Z" fill="#FFB9B9"/>
<path d="M645.222 168.41C645.222 168.41 671.646 224.077 669.454 239.42C667.262 254.764 659.59 243.804 659.59 243.804C659.59 243.804 649.727 228.461 645.343 237.228C640.959 245.996 635.479 258.052 631.095 256.956C626.711 255.86 602.6 174.758 615.752 167.087C628.903 159.415 645.222 168.41 645.222 168.41Z" fill="#A85D56"/>
<path d="M589.817 98.4137C616.993 98.4137 639.024 76.383 639.024 49.2068C639.024 22.0306 616.993 0 589.817 0C562.641 0 540.61 22.0306 540.61 49.2068C540.61 76.383 562.641 98.4137 589.817 98.4137Z" fill="#252220"/>
<path d="M547.373 89.9533C553.742 94.5565 561.121 97.5674 568.892 98.7343C576.663 99.9012 584.601 99.19 592.041 96.6602C599.481 94.1305 606.206 89.8558 611.656 84.1937C617.105 78.5317 621.119 71.647 623.362 64.1156C622.513 70.8649 620.274 77.365 616.786 83.2054C613.299 89.0458 608.638 94.0997 603.099 98.048C597.56 101.996 591.262 104.753 584.603 106.145C577.945 107.536 571.07 107.532 564.413 106.133C557.756 104.733 551.461 101.969 545.927 98.0141C540.392 94.0592 535.737 88.9997 532.257 83.1552C528.776 77.3106 526.545 70.8079 525.704 64.0576C524.864 57.3073 525.432 50.456 527.372 43.9362C526.27 52.6955 527.545 61.5899 531.065 69.6866C534.584 77.7832 540.217 84.7836 547.373 89.9533Z" fill="#252220"/>
<path d="M633.002 158.282C652.932 158.282 669.087 142.126 669.087 122.197C669.087 102.268 652.932 86.1119 633.002 86.1119C613.073 86.1119 596.917 102.268 596.917 122.197C596.917 142.126 613.073 158.282 633.002 158.282Z" fill="#252220"/>
<path d="M660.346 133.679C678.011 133.679 692.331 122.48 692.331 108.665C692.331 94.8505 678.011 83.6516 660.346 83.6516C642.682 83.6516 628.362 94.8505 628.362 108.665C628.362 122.48 642.682 133.679 660.346 133.679Z" fill="#252220"/>
<path d="M661.782 151.195C665.716 151.195 668.906 145.552 668.906 138.591C668.906 131.631 665.716 125.988 661.782 125.988C657.848 125.988 654.658 131.631 654.658 138.591C654.658 145.552 657.848 151.195 661.782 151.195Z" fill="#FFB9B9"/>
<path d="M759.569 324.427C759.569 324.427 778.971 313.296 782.572 316.087C786.174 318.878 787.775 327.612 787.775 327.612L765.351 336.413L758.775 324.358L759.569 324.427Z" fill="#28211E"/>
</g>
<defs>
<clipPath id="clip0_0_1">
<rect width="921.176" height="727.902" fill="white"/>
</clipPath>
</defs>
</svg>
